<svg width="20" height="16" viewBox="0 0 20 16" fill="none" xmlns="http://www.w3.org/2000/svg">
<path d="M19.209 2.41688H20V0.0834961H12.5198L10.0339 9.25013H9.96594L7.50269 0.0834961H0V2.41682H0.76837C0.945999 2.44573 1.1108 2.52747 1.2413 2.65139C1.3718 2.77532 1.46195 2.93568 1.5 3.11158V12.9419C1.4596 13.1115 1.36749 13.2643 1.23642 13.3793C1.10534 13.4942 0.941782 13.5656 0.76837 13.5835H0V15.9169H6V13.5835H4.5V3.25019H4.58752L8.0451 15.9169H10.7571L14.2599 3.25019H14.3334V13.5835H12.8334V15.9169H20V13.5835H19.209C19.0396 13.5614 18.8809 13.4882 18.7542 13.3735C18.6275 13.2589 18.5388 13.1083 18.5 12.9419V3.11164C18.5367 2.93893 18.6236 2.7809 18.7497 2.65732C18.8759 2.53374 19.0356 2.4501 19.209 2.41688Z" fill="black"/>
</svg>
